# xmcd
#
# Track frame offsets:
#	150
#	9473
#	30689
#	51572
#	75602
#	88501
#	103210
#	119193
#	138462
#	163938
#	187046
#	212551
#	228943
#	261591
#	281329
#	298493
#	318829
#	332574
#
# Disc length: 4487 seconds
#
# Revision: 1
# Processed by: cddbd v1.5.2PL0 Copyright (c) Steve Scherf et al.
# Submitted via: EZCDAudioConverter 8.0.2.1
#
DISCID=16118512
DTITLE=Hoàng Oanh - Dân Ca Cổ Truyền Việt nam
DYEAR=1993
DGENRE=
TTITLE0=Lời giới thiệu
TTITLE1=Lý ngựa ô
TTITLE2=Xe chỉ luồn kim
TTITLE3=Lý tình tang
TTITLE4=Trống cơm
TTITLE5=Cây trúc xinh
TTITLE6=Hò nện
TTITLE7=Lý lu là
TTITLE8=Lý bốn mùa
TTITLE9=Qua cầu gió bay
TTITLE10=Lý qua đèo
TTITLE11=Lý con sáo nam
TTITLE12=Ngồi tựa song đào
TTITLE13=Lý cắt cỏ
TTITLE14=Vọng nguyệt
TTITLE15=Lý Giang Nam
TTITLE16=Lý cây đa
TTITLE17=Lời kết
EXTD=
EXTT0=
EXTT1=
EXTT2=
EXTT3=
EXTT4=
EXTT5=
EXTT6=
EXTT7=
EXTT8=
EXTT9=
EXTT10=
EXTT11=
EXTT12=
EXTT13=
EXTT14=
EXTT15=
EXTT16=
EXTT17=
PLAYORDER=
